<?xml version="1.0" encoding="UTF-8"?>
<svg xmlns="http://www.w3.org/2000/svg" xmlns:xlink="http://www.w3.org/1999/xlink" viewBox="0 0 120 120" width="120px" height="120px">
<g id="surface64189115">
<path style=" stroke:none;fill-rule:nonzero;fill:rgb(20%,20%,20%);fill-opacity:1;" d="M 102.5 12.5 L 17.5 12.5 L 25 97.5 L 60 107.5 L 95 97.5 Z M 102.5 12.5 "/>
<path style=" stroke:none;fill-rule:nonzero;fill:rgb(20%,20%,20%);fill-opacity:1;" d="M 60 20 L 60 99.75 L 88 91.75 L 94.25 20 Z M 60 20 "/>
<path style=" stroke:none;fill-rule:nonzero;fill:rgb(100%,100%,100%);fill-opacity:1;" d="M 82.75 32.5 L 60 32.5 L 60 42.5 L 72.25 42.5 L 71.5 52.5 L 60 52.5 L 60 62.5 L 71 62.5 L 70.25 73.75 L 60 77.25 L 60 87.75 L 79.75 81.25 L 81.5 52.5 Z M 82.75 32.5 "/>
<path style=" stroke:none;fill-rule:nonzero;fill:rgb(93.333334%,93.333334%,93.333334%);fill-opacity:1;" d="M 60 32.5 L 60 42.5 L 37.75 42.5 L 37 32.5 Z M 48.5 52.5 L 49 62.5 L 60 62.5 L 60 52.5 Z M 49.5 67.5 L 39.5 67.5 L 40.25 81.25 L 60 87.75 L 60 77.25 L 49.75 73.75 Z M 49.5 67.5 "/>
</g>
</svg>
