<?xml version="1.0" encoding="UTF-8"?>
<svg xmlns="http://www.w3.org/2000/svg" xmlns:xlink="http://www.w3.org/1999/xlink" viewBox="0 0 120 120" width="120px" height="120px">
<g id="surface64080477">
<path style=" stroke:none;fill-rule:nonzero;fill:rgb(0%,0%,0%);fill-opacity:1;" d="M 42.699219 112.40625 C 44.40625 111.671875 45.601562 109.976562 45.601562 108 L 45.601562 95.039062 C 45.601562 94.566406 45.636719 94.074219 45.699219 93.574219 C 45.664062 93.585938 45.632812 93.59375 45.601562 93.601562 C 45.601562 93.601562 38.398438 93.601562 36.960938 93.601562 C 33.359375 93.601562 30.238281 92.160156 28.800781 89.28125 C 27.121094 86.160156 26.398438 80.878906 22.078125 78 C 21.359375 77.519531 21.839844 76.800781 23.28125 76.800781 C 24.71875 77.039062 27.839844 78.960938 29.761719 81.601562 C 31.921875 84.238281 34.078125 86.398438 37.921875 86.398438 C 43.890625 86.398438 47.089844 86.101562 49.011719 85.066406 C 51.253906 81.734375 54.359375 79.199219 57.601562 79.199219 L 57.601562 79.140625 C 43.996094 78.703125 35.304688 74.179688 31.261719 67.199219 C 22.464844 67.300781 14.804688 68.171875 10.433594 68.898438 C 10.296875 68.113281 10.175781 67.324219 10.074219 66.527344 C 14.386719 65.816406 21.695312 64.976562 30.101562 64.8125 C 29.832031 64.152344 29.597656 63.472656 29.402344 62.777344 C 20.976562 62.347656 13.703125 62.683594 9.753906 63.007812 C 9.707031 62.210938 9.640625 61.417969 9.632812 60.613281 C 13.589844 60.289062 20.664062 59.964844 28.875 60.34375 C 28.683594 59.144531 28.5625 57.917969 28.5625 56.640625 C 28.5625 52.5625 30.003906 48.242188 32.640625 44.640625 C 31.441406 40.5625 29.761719 31.921875 33.121094 28.800781 C 39.601562 28.800781 44.164062 31.921875 46.324219 33.84375 C 50.398438 32.160156 54.960938 31.199219 60 31.199219 C 65.039062 31.199219 69.601562 32.160156 73.441406 33.839844 C 75.601562 31.921875 80.160156 28.800781 86.640625 28.800781 C 90.238281 32.160156 88.320312 40.800781 87.121094 44.640625 C 89.761719 48.238281 91.199219 52.320312 90.960938 56.640625 C 90.960938 57.800781 90.851562 58.921875 90.695312 60.023438 C 99.09375 59.609375 106.359375 59.941406 110.386719 60.265625 C 110.378906 61.074219 110.304688 61.863281 110.261719 62.664062 C 106.253906 62.332031 98.804688 61.992188 90.203125 62.449219 C 89.988281 63.257812 89.730469 64.042969 89.421875 64.800781 C 97.933594 64.914062 105.417969 65.734375 109.9375 66.457031 C 109.832031 67.253906 109.714844 68.042969 109.574219 68.824219 C 104.984375 68.089844 97.164062 67.230469 88.265625 67.1875 C 84.269531 74.09375 75.738281 78.601562 62.398438 79.125 L 62.398438 79.199219 C 68.640625 79.199219 74.398438 88.558594 74.398438 95.039062 L 74.398438 108 C 74.398438 109.976562 75.59375 111.671875 77.300781 112.40625 C 99.289062 105.128906 115.199219 84.394531 115.199219 60 C 115.199219 29.5625 90.4375 4.800781 60 4.800781 C 29.5625 4.800781 4.800781 29.5625 4.800781 60 C 4.800781 84.394531 20.710938 105.128906 42.699219 112.40625 Z M 42.699219 112.40625 "/>
</g>
</svg>
