<?xml version="1.0" encoding="UTF-8"?>
<svg xmlns="http://www.w3.org/2000/svg" xmlns:xlink="http://www.w3.org/1999/xlink" viewBox="0 0 120 120" width="120px" height="120px">
<g id="surface64060865">
<path style=" stroke:none;fill-rule:nonzero;fill:rgb(0%,0%,0%);fill-opacity:1;" d="M 15 105 L 15 15 L 105 15 L 105 105 Z M 15 105 "/>
<path style=" stroke:none;fill-rule:nonzero;fill:rgb(94.509804%,76.862746%,5.882353%);fill-opacity:1;" d="M 73.84375 82.367188 C 75.574219 85.175781 77.453125 87.871094 81.4375 87.871094 C 84.78125 87.871094 86.539062 86.207031 86.539062 83.90625 C 86.539062 81.15625 84.722656 80.175781 81.042969 78.574219 L 79.023438 77.714844 C 73.203125 75.246094 69.328125 72.148438 69.328125 65.613281 C 69.328125 59.585938 73.941406 55.003906 81.148438 55.003906 C 86.28125 55.003906 89.96875 56.78125 92.628906 61.433594 L 86.34375 65.453125 C 84.960938 62.984375 83.46875 62.011719 81.148438 62.011719 C 78.785156 62.011719 77.289062 63.503906 77.289062 65.453125 C 77.289062 67.863281 78.789062 68.835938 82.25 70.328125 L 84.265625 71.191406 C 91.128906 74.113281 95 77.097656 95 83.808594 C 95 91.039062 89.289062 95 81.625 95 C 74.128906 95 69.871094 91.238281 67.5 86.578125 Z M 44.878906 82.574219 C 46.144531 84.835938 48.066406 86.578125 50.832031 86.578125 C 53.476562 86.578125 55 85.535156 55 81.472656 L 55 55 L 63.332031 55 L 63.332031 82.753906 C 63.332031 91.171875 58.449219 95 51.320312 95 C 44.878906 95 40.226562 90.636719 38.332031 86.578125 Z M 44.878906 82.574219 "/>
</g>
</svg>
