<?xml version="1.0" encoding="UTF-8"?>
<svg xmlns="http://www.w3.org/2000/svg" xmlns:xlink="http://www.w3.org/1999/xlink" viewBox="0 0 120 120" width="120px" height="120px">
<g id="surface64426042">
<path style=" stroke:none;fill-rule:nonzero;fill:rgb(20.392157%,59.607846%,85.882354%);fill-opacity:1;" d="M 42.71875 16.726562 C 40.273438 16.726562 38.007812 17.273438 36 18.429688 C 29.722656 22.054688 27.335938 30.882812 28.601562 41.875 C 18.449219 46.273438 12 52.753906 12 60 C 12 67.246094 18.449219 73.726562 28.601562 78.125 C 27.335938 89.117188 29.722656 97.945312 36 101.570312 C 38.003906 102.726562 40.269531 103.273438 42.71875 103.273438 C 47.929688 103.273438 53.953125 100.660156 60 96.171875 C 66.050781 100.660156 72.078125 103.273438 77.289062 103.273438 C 79.734375 103.273438 82 102.726562 84.007812 101.570312 C 90.285156 97.945312 92.671875 89.117188 91.40625 78.125 C 101.554688 73.726562 108 67.242188 108 60 C 108 52.753906 101.550781 46.273438 91.398438 41.875 C 92.664062 30.882812 90.277344 22.054688 84 18.429688 C 81.996094 17.269531 79.730469 16.726562 77.28125 16.726562 C 72.070312 16.726562 66.046875 19.339844 60 23.828125 C 53.949219 19.339844 47.925781 16.726562 42.71875 16.726562 Z M 42.71875 23.726562 C 45.84375 23.726562 49.980469 25.390625 54.46875 28.46875 C 51.828125 30.960938 49.246094 33.792969 46.757812 36.945312 C 42.722656 37.523438 38.921875 38.367188 35.398438 39.421875 C 35.378906 39.175781 35.335938 38.921875 35.320312 38.679688 C 34.890625 31.558594 36.457031 26.253906 39.5 24.492188 C 40.398438 23.972656 41.449219 23.726562 42.71875 23.726562 Z M 77.28125 23.726562 C 78.546875 23.726562 79.601562 23.972656 80.5 24.492188 C 83.542969 26.25 85.109375 31.558594 84.679688 38.679688 C 84.664062 38.921875 84.621094 39.175781 84.601562 39.421875 C 81.078125 38.367188 77.269531 37.523438 73.234375 36.945312 C 70.746094 33.792969 68.171875 30.960938 65.53125 28.46875 C 70.019531 25.390625 74.15625 23.726562 77.28125 23.726562 Z M 60 32.914062 C 61.085938 33.902344 62.160156 34.945312 63.25 36.085938 C 62.171875 36.050781 61.097656 36 60 36 C 58.90625 36 57.835938 36.050781 56.757812 36.085938 C 57.847656 34.945312 58.917969 33.898438 60 32.914062 Z M 60 43 C 63.316406 43 66.457031 43.183594 69.4375 43.507812 C 71.253906 45.980469 73.046875 48.589844 74.726562 51.5 C 76.335938 54.289062 77.757812 57.140625 79.015625 60 C 77.757812 62.859375 76.335938 65.71875 74.726562 68.507812 C 73.050781 71.40625 71.265625 74.003906 69.453125 76.46875 C 66.367188 76.804688 63.199219 77 60 77 C 56.683594 77 53.542969 76.816406 50.5625 76.492188 C 48.746094 74.019531 46.953125 71.417969 45.273438 68.507812 C 43.664062 65.71875 42.242188 62.859375 40.984375 60 C 42.238281 57.140625 43.664062 54.289062 45.273438 51.5 C 46.949219 48.601562 48.734375 45.996094 50.546875 43.53125 C 53.632812 43.195312 56.800781 43 60 43 Z M 78.984375 45.164062 C 80.570312 45.546875 82.097656 45.960938 83.53125 46.421875 C 83.207031 47.890625 82.808594 49.386719 82.359375 50.898438 C 81.84375 49.933594 81.34375 48.964844 80.789062 48 C 80.214844 47.007812 79.582031 46.117188 78.984375 45.164062 Z M 41.007812 45.171875 C 40.414062 46.125 39.78125 47.011719 39.210938 48 C 38.65625 48.964844 38.15625 49.933594 37.640625 50.898438 C 37.191406 49.382812 36.785156 47.886719 36.460938 46.414062 C 37.921875 45.953125 39.441406 45.542969 41.007812 45.171875 Z M 29.875 48.984375 C 30.71875 52.542969 31.886719 56.230469 33.390625 59.992188 C 31.890625 63.742188 30.726562 67.425781 29.882812 70.976562 C 22.917969 67.613281 19 63.425781 19 60 C 19 56.484375 22.808594 52.476562 29.1875 49.289062 C 29.40625 49.179688 29.652344 49.089844 29.875 48.984375 Z M 90.117188 49.023438 C 97.082031 52.386719 101 56.574219 101 60 C 101 63.515625 97.191406 67.523438 90.8125 70.710938 C 90.59375 70.820312 90.347656 70.910156 90.125 71.015625 C 89.28125 67.453125 88.121094 63.761719 86.617188 60 C 88.117188 56.25 89.273438 52.570312 90.117188 49.023438 Z M 60 52 C 55.578125 52 52 55.578125 52 60 C 52 64.421875 55.578125 68 60 68 C 64.421875 68 68 64.421875 68 60 C 68 55.578125 64.421875 52 60 52 Z M 37.640625 69.101562 C 38.15625 70.066406 38.660156 71.035156 39.21875 72 C 39.789062 72.992188 40.417969 73.882812 41.015625 74.835938 C 39.429688 74.453125 37.902344 74.039062 36.46875 73.578125 C 36.792969 72.109375 37.191406 70.613281 37.640625 69.101562 Z M 82.359375 69.109375 C 82.808594 70.621094 83.214844 72.117188 83.539062 73.585938 C 82.078125 74.046875 80.558594 74.457031 78.992188 74.828125 C 79.585938 73.875 80.21875 72.988281 80.789062 72 C 81.34375 71.039062 81.847656 70.074219 82.359375 69.109375 Z M 35.398438 80.578125 C 38.921875 81.632812 42.730469 82.476562 46.765625 83.054688 C 49.253906 86.210938 51.828125 89.046875 54.46875 91.539062 C 49.980469 94.617188 45.84375 96.28125 42.71875 96.28125 C 41.453125 96.28125 40.398438 96.027344 39.5 95.507812 C 36.457031 93.75 34.890625 88.449219 35.320312 81.328125 C 35.335938 81.085938 35.378906 80.824219 35.398438 80.578125 Z M 84.601562 80.578125 C 84.621094 80.824219 84.664062 81.085938 84.679688 81.328125 C 85.109375 88.449219 83.542969 93.746094 80.5 95.507812 C 79.601562 96.027344 78.550781 96.28125 77.28125 96.28125 C 74.15625 96.28125 70.019531 94.617188 65.53125 91.539062 C 68.171875 89.046875 70.753906 86.210938 73.242188 83.054688 C 77.277344 82.476562 81.078125 81.632812 84.601562 80.578125 Z M 56.75 83.914062 C 57.828125 83.949219 58.902344 84 60 84 C 61.097656 84 62.171875 83.949219 63.25 83.914062 C 62.160156 85.054688 61.085938 86.097656 60 87.085938 C 58.914062 86.097656 57.839844 85.054688 56.75 83.914062 Z M 56.75 83.914062 "/>
</g>
</svg>
